<svg xmlns="http://www.w3.org/2000/svg" viewBox="136.65 133.87 345.69 346.32"><path d="  M 299 134 C 324 133, 348, 138, 369, 144  C 390 152, 408, 162, 424, 176  C 442 193, 456, 211, 465, 231  C 477 255, 484, 278, 482, 306  C 483 329, 481, 349, 473, 367  C 465 390, 453, 409, 437, 424  C 420 442, 401, 457, 380, 465  C 359 473, 340, 480, 318, 480  C 296 481, 276, 478, 261, 473  C 240 466, 219, 458, 203, 443  C 184 429, 169, 412, 158, 395  C 146 372, 139, 350, 137, 326  C 136 302, 137, 279, 142, 260  C 149 236, 160, 216, 175, 197  C 191 180, 207, 166, 225, 157  C 248 143, 272, 137, 297, 134" fill="rgb(172,80,201)"/>
<path d="  M 291 142 C 283 143, 276, 144, 269, 146  C 246 152, 226, 161, 208, 174  C 189 189, 174, 207, 164, 226  C 153 244, 147, 262, 144, 281  C 141 305, 142, 329, 148, 349  C 154 371, 162, 389, 174, 406  C 188 425, 206, 440, 224, 450  C 239 430, 260, 408, 270, 392  C 260 386, 250, 378, 240, 369  C 233 360, 229, 352, 225, 344  C 218 327, 218, 310, 219, 292  C 220 280, 224, 270, 228, 261  C 235 248, 246, 238, 257, 231  C 268 223, 278, 219, 289, 216  C 303 214, 315, 214, 326, 216  C 337 217, 345, 221, 353, 224  C 362 217, 370, 211, 381, 189  C 384 191, 383, 186, 387, 188  C 381 185, 390, 185, 384, 185  C 390 179, 389, 179, 393, 174  C 394 155, 353, 145, 329, 142  C 315 141, 304, 142, 292, 141" fill="rgb(186,81,253)"/>
<path d="  M 303 221 C 289 222, 277, 226, 265, 232  C 253 240, 244, 248, 238, 258  C 231 268, 229, 277, 226, 285  C 224 299, 224, 312, 226, 323  C 229 337, 233, 347, 240, 356  C 245 365, 251, 371, 257, 375  C 269 384, 280, 387, 291, 391  C 303 394, 314, 392, 324, 393  C 345 388, 362, 380, 377, 366  C 384 357, 389, 349, 392, 341  C 395 328, 393, 316, 394, 306  C 369 304, 346, 305, 323, 304  C 340 289, 353, 273, 364, 261  C 374 255, 386, 261, 391, 254  C 385 252, 382, 253, 379, 251  C 365 240, 353, 229, 339, 225  C 326 222, 316, 220, 304, 221" fill="rgb(65,64,65)"/>
<path d="  M 444 208 C 429 235, 416, 242, 399, 259  C 399 283, 400, 304, 399, 326  C 398 340, 395, 351, 389, 361  C 382 370, 376, 375, 367, 381  C 355 390, 344, 395, 331, 397  C 331 402, 335, 403, 336, 406  C 329 412, 327, 417, 322, 421  C 317 428, 319, 428, 322, 429  C 300 443, 301, 455, 272, 469  C 291 475, 313, 474, 332, 472  C 351 470, 366, 464, 380, 458  C 396 451, 410, 443, 422, 432  C 436 419, 445, 408, 453, 394  C 462 380, 468, 366, 472, 352  C 475 336, 477, 323, 477, 311  C 477 290, 474, 273, 469, 257  C 463 238, 455, 224, 446, 209" fill="rgb(233,39,253)"/>
<path d="  M 303 253 C 320 251, 336, 256, 348, 267  C 346 274, 340, 275, 342, 281  C 318 293, 296, 325, 273, 343  C 264 333, 260, 324, 259, 313  C 258 298, 260, 285, 267, 275  C 277 264, 286, 256, 297, 254  L 299 253 L 300 253 L 302 254" fill="rgb(231,231,232)"/>
<path d="  M 305 255 C 296 257, 287, 259, 279, 265  C 269 274, 262, 287, 261, 299  C 261 315, 263, 327, 270, 338  C 281 317, 382, 270, 318, 253  C 312 254, 310, 255, 307, 255" fill="rgb(253,253,253)"/>
<path d="  M 326 398 C 316 399, 306, 400, 298, 399  C 303 408, 288, 419, 290, 419  C 278 428, 278, 437, 269, 443  C 263 452, 256, 456, 245, 459  C 255 465, 265, 468, 276, 470  C 291 460, 300, 446, 319, 429  C 319 429, 322, 429, 318, 428  C 324 414, 344, 406, 326, 397" fill="rgb(221,53,245)"/>
<path d="  M 389 161 C 390 164, 390, 166, 395, 173  C 382 190, 386, 185, 368, 210  C 368 211, 358, 221, 352, 222  C 362 228, 366, 236, 375, 236  C 391 232, 393, 224, 407, 213  C 413 207, 419, 198, 422, 191  C 421 188, 424, 183, 418, 180  C 408 172, 399, 167, 390, 162" fill="rgb(204,70,245)"/>
<path d="  M 270 393 C 260 409, 240, 430, 228, 450  C 234 455, 238, 459, 243, 459  C 253 455, 254, 456, 265, 448  C 273 441, 276, 431, 289, 420  C 305 408, 298, 392, 270, 393" fill="rgb(204,69,244)"/>
<path d="  M 369 262 C 355 275, 340, 291, 327, 302  C 350 304, 377, 300, 398, 304  C 398 297, 394, 247, 396, 280  C 393 274, 392, 268, 391, 263  C 384 262, 377, 262, 371, 262" fill="rgb(253,252,253)"/>
<path d="  M 423 185 C 425 191, 420, 198, 416, 203  C 405 210, 404, 220, 387, 233  C 377 236, 382, 241, 371, 235  C 378 243, 383, 251, 394, 247  C 398 252, 396, 257, 397, 261  C 413 246, 438, 222, 443, 207  C 440 202, 432, 192, 425, 186" fill="rgb(220,54,244)"/>
<path d="  M 291 336  L 293 334 C 313 337, 336, 335, 357, 336  C 349 349, 336, 355, 324, 358  C 313 360, 304, 360, 296, 357  C 280 356, 273, 345, 290, 338" fill="rgb(214,214,214)"/>
<path d="  M 294 336 C 262 352, 307, 361, 319, 356  C 335 354, 346, 348, 354, 338  C 335 337, 314, 339, 295, 336" fill="rgb(253,253,253)"/>
<path d="  M 262 144 C 253 147, 235, 153, 224, 160  C 211 167, 202, 175, 192, 183  C 170 204, 156, 228, 147, 252  C 144 265, 141, 275, 140, 286  C 140 309, 138, 330, 144, 348  C 148 365, 154, 379, 161, 393  C 169 404, 175, 415, 184, 424  C 188 424, 167, 401, 163, 391  C 155 375, 148, 362, 145, 347  C 139 319, 139, 288, 146, 264  C 154 237, 165, 215, 183, 195  C 195 183, 206, 173, 219, 166  C 234 155, 251, 151, 265, 144" fill="rgb(242,252,234)"/>
<path d="  M 306 216 C 303 218, 299, 216, 297, 217  C 278 220, 262, 226, 253, 238  C 248 242, 247, 238, 243, 244  C 212 296, 225, 279, 251, 236  C 264 229, 278, 223, 292, 220  C 310 217, 327, 219, 340, 224  C 356 229, 367, 238, 378, 248  C 383 251, 387, 250, 392, 249  C 392 261, 393, 268, 394, 278  C 394 268, 397, 261, 394, 250  L 394 250  L 392 250 C 388 249, 386, 250, 383, 250  C 370 236, 355, 225, 339, 221  C 328 217, 318, 217, 308, 215" fill="rgb(240,252,242)"/>
<path d="  M 477 331 C 476 350, 470, 366, 462, 382  C 459 393, 448, 404, 442, 414  C 427 429, 411, 444, 395, 453  C 371 465, 349, 474, 324, 475  C 292 478, 262, 470, 241, 461  C 265 473, 290, 478, 318, 476  C 346 475, 371, 468, 394, 456  C 415 443, 435, 427, 449, 406  C 461 392, 464, 377, 470, 368  C 474 354, 477, 344, 479, 334" fill="rgb(239,253,238)"/>
<path d="  M 221 313 C 220 328, 226, 343, 233, 355  C 241 369, 253, 379, 265, 385  C 278 392, 291, 398, 306, 396  C 324 397, 341, 395, 354, 387  C 345 389, 321, 398, 298, 394  C 285 391, 275, 388, 266, 384  C 253 376, 242, 366, 236, 354  C 228 341, 224, 329, 223, 315" fill="rgb(241,252,239)"/>
<path d="  M 319 139 C 342 141, 381, 150, 403, 168  C 415 175, 424, 182, 432, 190  C 446 204, 453, 218, 461, 231  C 456 215, 445, 202, 434, 189  C 423 179, 415, 172, 404, 166  C 390 156, 376, 150, 362, 145  C 348 142, 336, 139, 324, 137" fill="rgb(243,253,235)"/>
<path d="  M 223 281 C 220 291, 219, 304, 221, 313  C 224 306, 221, 293, 225, 284" fill="rgb(248,251,249)"/>
<path d="  M 471 254 C 476 271, 480, 293, 478, 314  C 481 292, 478, 273, 472, 255" fill="rgb(250,252,250)"/>
<path d="  M 379 366 C 372 374, 362, 381, 352, 386  C 361 387, 373, 375, 380, 368" fill="rgb(248,253,248)"/>
<path d="  M 395 333 C 394 345, 386, 360, 380, 366  C 391 358, 396, 344, 396, 334" fill="rgb(241,252,245)"/>
<path d="  M 297 138 C 274 141, 309, 139, 317, 139  C 314 137, 305, 138, 299, 137" fill="rgb(250,253,246)"/>
<path d="  M 358 142 C 375 148, 392, 155, 408, 165  C 422 176, 434, 186, 444, 198  C 433 185, 422, 176, 409, 166  C 405 164, 404, 161, 401, 161  C 386 151, 374, 147, 360, 142" fill="rgb(85,62,77)"/>
<path d="  M 142 349 C 145 364, 151, 378, 158, 391  C 167 406, 176, 418, 187, 430  C 177 420, 167, 406, 160, 393  C 152 379, 146, 366, 142, 352" fill="rgb(87,60,76)"/>
<path d="  M 186 424 C 192 432, 199, 437, 206, 443  C 201 436, 194, 430, 188, 425" fill="rgb(248,253,249)"/>
<path d="  M 207 440 C 204 443, 216, 450, 223, 455  C 222 449, 212, 446, 208, 441" fill="rgb(241,251,245)"/></svg>