<?xml version="1.0" standalone="no"?>
<!DOCTYPE svg PUBLIC "-//W3C//DTD SVG 1.0//EN" "http://www.w3.org/TR/2001/REC-SVG-20010904/DTD/svg10.dtd">
<svg xmlns="http://www.w3.org/2000/svg" xmlns:xlink="http://www.w3.org/1999/xlink" id="body_1" width="338" height="253">

<g transform="matrix(0.73053825 0 0 0.73053825 -56.623074 -97.16158)">
    <path d="M299 134C 324 133 348 138 369 144C 390 152 408 162 424 176C 442 193 456 211 465 231C 477 255 484 278 482 306C 483 329 481 349 473 367C 465 390 453 409 437 424C 420 442 401 457 380 465C 359 473 340 480 318 480C 296 481 276 478 261 473C 240 466 219 458 203 443C 184 429 169 412 158 395C 146 372 139 350 137 326C 136 302 137 279 142 260C 149 236 160 216 175 197C 191 180 207 166 225 157C 248 143 272 137 297 134" stroke="none" fill="#AC50C9" fill-rule="nonzero" />
    <path d="M291 142C 283 143 276 144 269 146C 246 152 226 161 208 174C 189 189 174 207 164 226C 153 244 147 262 144 281C 141 305 142 329 148 349C 154 371 162 389 174 406C 188 425 206 440 224 450C 239 430 260 408 270 392C 260 386 250 378 240 369C 233 360 229 352 225 344C 218 327 218 310 219 292C 220 280 224 270 228 261C 235 248 246 238 257 231C 268 223 278 219 289 216C 303 214 315 214 326 216C 337 217 345 221 353 224C 362 217 370 211 381 189C 384 191 383 186 387 188C 381 185 390 185 384 185C 390 179 389 179 393 174C 394 155 353 145 329 142C 315 141 304 142 292 141" stroke="none" fill="#BA51FD" fill-rule="nonzero" />
    <path d="M303 221C 289 222 277 226 265 232C 253 240 244 248 238 258C 231 268 229 277 226 285C 224 299 224 312 226 323C 229 337 233 347 240 356C 245 365 251 371 257 375C 269 384 280 387 291 391C 303 394 314 392 324 393C 345 388 362 380 377 366C 384 357 389 349 392 341C 395 328 393 316 394 306C 369 304 346 305 323 304C 340 289 353 273 364 261C 374 255 386 261 391 254C 385 252 382 253 379 251C 365 240 353 229 339 225C 326 222 316 220 304 221" stroke="none" fill="#414041" fill-rule="nonzero" />
    <path d="M444 208C 429 235 416 242 399 259C 399 283 400 304 399 326C 398 340 395 351 389 361C 382 370 376 375 367 381C 355 390 344 395 331 397C 331 402 335 403 336 406C 329 412 327 417 322 421C 317 428 319 428 322 429C 300 443 301 455 272 469C 291 475 313 474 332 472C 351 470 366 464 380 458C 396 451 410 443 422 432C 436 419 445 408 453 394C 462 380 468 366 472 352C 475 336 477 323 477 311C 477 290 474 273 469 257C 463 238 455 224 446 209" stroke="none" fill="#E927FD" fill-rule="nonzero" />
    <path d="M303 253C 320 251 336 256 348 267C 346 274 340 275 342 281C 318 293 296 325 273 343C 264 333 260 324 259 313C 258 298 260 285 267 275C 277 264 286 256 297 254L297 254L299 253L300 253L302 254" stroke="none" fill="#E7E7E8" fill-rule="nonzero" />
    <path d="M305 255C 296 257 287 259 279 265C 269 274 262 287 261 299C 261 315 263 327 270 338C 281 317 382 270 318 253C 312 254 310 255 307 255" stroke="none" fill="#FDFDFD" fill-rule="nonzero" />
    <path d="M326 398C 316 399 306 400 298 399C 303 408 288 419 290 419C 278 428 278 437 269 443C 263 452 256 456 245 459C 255 465 265 468 276 470C 291 460 300 446 319 429C 319 429 322 429 318 428C 324 414 344 406 326 397" stroke="none" fill="#DD35F5" fill-rule="nonzero" />
    <path d="M389 161C 390 164 390 166 395 173C 382 190 386 185 368 210C 368 211 358 221 352 222C 362 228 366 236 375 236C 391 232 393 224 407 213C 413 207 419 198 422 191C 421 188 424 183 418 180C 408 172 399 167 390 162" stroke="none" fill="#CC46F5" fill-rule="nonzero" />
    <path d="M270 393C 260 409 240 430 228 450C 234 455 238 459 243 459C 253 455 254 456 265 448C 273 441 276 431 289 420C 305 408 298 392 270 393" stroke="none" fill="#CC45F4" fill-rule="nonzero" />
    <path d="M369 262C 355 275 340 291 327 302C 350 304 377 300 398 304C 398 297 394 247 396 280C 393 274 392 268 391 263C 384 262 377 262 371 262" stroke="none" fill="#FDFCFD" fill-rule="nonzero" />
    <path d="M423 185C 425 191 420 198 416 203C 405 210 404 220 387 233C 377 236 382 241 371 235C 378 243 383 251 394 247C 398 252 396 257 397 261C 413 246 438 222 443 207C 440 202 432 192 425 186" stroke="none" fill="#DC36F4" fill-rule="nonzero" />
    <path d="M291 336L293 334C 313 337 336 335 357 336C 349 349 336 355 324 358C 313 360 304 360 296 357C 280 356 273 345 290 338" stroke="none" fill="#D6D6D6" fill-rule="nonzero" />
    <path d="M294 336C 262 352 307 361 319 356C 335 354 346 348 354 338C 335 337 314 339 295 336" stroke="none" fill="#FDFDFD" fill-rule="nonzero" />
    <path d="M262 144C 253 147 235 153 224 160C 211 167 202 175 192 183C 170 204 156 228 147 252C 144 265 141 275 140 286C 140 309 138 330 144 348C 148 365 154 379 161 393C 169 404 175 415 184 424C 188 424 167 401 163 391C 155 375 148 362 145 347C 139 319 139 288 146 264C 154 237 165 215 183 195C 195 183 206 173 219 166C 234 155 251 151 265 144" stroke="none" fill="#F2FCEA" fill-rule="nonzero" />
    <path d="M306 216C 303 218 299 216 297 217C 278 220 262 226 253 238C 248 242 247 238 243 244C 212 296 225 279 251 236C 264 229 278 223 292 220C 310 217 327 219 340 224C 356 229 367 238 378 248C 383 251 387 250 392 249C 392 261 393 268 394 278C 394 268 397 261 394 250L394 250L392 250C 388 249 386 250 383 250C 370 236 355 225 339 221C 328 217 318 217 308 215" stroke="none" fill="#F0FCF2" fill-rule="nonzero" />
    <path d="M477 331C 476 350 470 366 462 382C 459 393 448 404 442 414C 427 429 411 444 395 453C 371 465 349 474 324 475C 292 478 262 470 241 461C 265 473 290 478 318 476C 346 475 371 468 394 456C 415 443 435 427 449 406C 461 392 464 377 470 368C 474 354 477 344 479 334" stroke="none" fill="#EFFDEE" fill-rule="nonzero" />
    <path d="M221 313C 220 328 226 343 233 355C 241 369 253 379 265 385C 278 392 291 398 306 396C 324 397 341 395 354 387C 345 389 321 398 298 394C 285 391 275 388 266 384C 253 376 242 366 236 354C 228 341 224 329 223 315" stroke="none" fill="#F1FCEF" fill-rule="nonzero" />
    <path d="M319 139C 342 141 381 150 403 168C 415 175 424 182 432 190C 446 204 453 218 461 231C 456 215 445 202 434 189C 423 179 415 172 404 166C 390 156 376 150 362 145C 348 142 336 139 324 137" stroke="none" fill="#F3FDEB" fill-rule="nonzero" />
    <path d="M223 281C 220 291 219 304 221 313C 224 306 221 293 225 284" stroke="none" fill="#F8FBF9" fill-rule="nonzero" />
    <path d="M471 254C 476 271 480 293 478 314C 481 292 478 273 472 255" stroke="none" fill="#FAFCFA" fill-rule="nonzero" />
    <path d="M379 366C 372 374 362 381 352 386C 361 387 373 375 380 368" stroke="none" fill="#F8FDF8" fill-rule="nonzero" />
    <path d="M395 333C 394 345 386 360 380 366C 391 358 396 344 396 334" stroke="none" fill="#F1FCF5" fill-rule="nonzero" />
    <path d="M297 138C 274 141 309 139 317 139C 314 137 305 138 299 137" stroke="none" fill="#FAFDF6" fill-rule="nonzero" />
    <path d="M358 142C 375 148 392 155 408 165C 422 176 434 186 444 198C 433 185 422 176 409 166C 405 164 404 161 401 161C 386 151 374 147 360 142" stroke="none" fill="#553E4D" fill-rule="nonzero" />
    <path d="M142 349C 145 364 151 378 158 391C 167 406 176 418 187 430C 177 420 167 406 160 393C 152 379 146 366 142 352" stroke="none" fill="#573C4C" fill-rule="nonzero" />
    <path d="M186 424C 192 432 199 437 206 443C 201 436 194 430 188 425" stroke="none" fill="#F8FDF9" fill-rule="nonzero" />
    <path d="M207 440C 204 443 216 450 223 455C 222 449 212 446 208 441" stroke="none" fill="#F1FBF5" fill-rule="nonzero" />
</g>
</svg>